<svg width="98" height="75" viewBox="0 0 98 75" fill="none" xmlns="http://www.w3.org/2000/svg">
<path fill-rule="evenodd" clip-rule="evenodd" d="M29 70.5C30.933 70.5 32.5 68.933 32.5 67C32.5 65.067 30.933 63.5 29 63.5C27.067 63.5 25.5 65.067 25.5 67C25.5 68.933 27.067 70.5 29 70.5ZM29 74.5C33.1421 74.5 36.5 71.1421 36.5 67C36.5 62.8579 33.1421 59.5 29 59.5C24.8579 59.5 21.5 62.8579 21.5 67C21.5 71.1421 24.8579 74.5 29 74.5Z" fill="#EC1415"/>
<path fill-rule="evenodd" clip-rule="evenodd" d="M78 70.5C79.933 70.5 81.5 68.933 81.5 67C81.5 65.067 79.933 63.5 78 63.5C76.067 63.5 74.5 65.067 74.5 67C74.5 68.933 76.067 70.5 78 70.5ZM78 74.5C82.1421 74.5 85.5 71.1421 85.5 67C85.5 62.8579 82.1421 59.5 78 59.5C73.8579 59.5 70.5 62.8579 70.5 67C70.5 71.1421 73.8579 74.5 78 74.5Z" fill="#EC1415"/>
<path fill-rule="evenodd" clip-rule="evenodd" d="M0 2C0 0.89543 0.89543 0 2 0H10C10.8788 0 11.6547 0.573719 11.9122 1.414L15.1563 12H96C96.6586 12 97.275 12.3242 97.6481 12.867C98.0212 13.4097 98.1032 14.1013 97.8673 14.7162L83.8673 51.2162C83.5707 51.9895 82.8282 52.5 82 52.5H26.1977L23.4968 59H77.5C78.6046 59 79.5 59.8954 79.5 61C79.5 62.1046 78.6046 63 77.5 63H20.5C19.8316 63 19.2075 62.6661 18.8364 62.1102C18.4654 61.5543 18.3966 60.8498 18.6531 60.2326L22.7397 50.3975L8.5211 4H2C0.89543 4 0 3.10457 0 2ZM26.3418 48.5H80.6251L93.0908 16H16.3821L26.3418 48.5Z" fill="#EC1415"/>
<path fill-rule="evenodd" clip-rule="evenodd" d="M57 26C57 24.8954 56.1046 24 55 24H25C23.8954 24 23 24.8954 23 26C23 27.1046 23.8954 28 25 28H55C56.1046 28 57 27.1046 57 26ZM57 37.5C57 36.3954 56.1046 35.5 55 35.5H36.5C35.3954 35.5 34.5 36.3954 34.5 37.5C34.5 38.6046 35.3954 39.5 36.5 39.5H55C56.1046 39.5 57 38.6046 57 37.5Z" fill="#EC1415"/>
</svg>
